<svg width="36" height="34" viewBox="0 0 36 34" fill="none" xmlns="http://www.w3.org/2000/svg">
<path d="M18.0011 0.00108932C8.05663 0.00108932 0 7.80834 0 17.4304C0 25.1353 5.15732 31.6658 12.3049 33.9698C13.2083 34.1343 13.5346 33.5951 13.5346 33.1288C13.5346 32.7149 13.5245 31.6201 13.5177 30.1669C8.50778 31.217 7.45247 27.8238 7.45247 27.8238C6.63229 25.815 5.44872 25.2758 5.44872 25.2758C3.81961 24.1985 5.5781 24.2213 5.5781 24.2213C7.38271 24.3401 8.33227 26.0133 8.33227 26.0133C9.93775 28.68 12.5445 27.9087 13.5762 27.4599C13.7337 26.3368 14.2029 25.5645 14.7137 25.1342C10.7174 24.6974 6.51528 23.1995 6.51528 16.5208C6.51528 14.6134 7.21283 13.06 8.36602 11.84C8.16689 11.4031 7.5571 9.62753 8.52466 7.22664C8.52466 7.22664 10.0311 6.76149 13.475 9.01424C14.9162 8.62752 16.4463 8.43471 17.9752 8.42491C19.5053 8.43471 21.0343 8.62861 22.4755 9.01424C25.8991 6.76149 27.4045 7.22664 27.4045 7.22664C28.3709 9.62753 27.7611 11.4021 27.5856 11.84C28.7275 13.06 29.4251 14.6145 29.4251 16.5208C29.4251 23.2148 25.2173 24.6908 21.2166 25.1168C21.8421 25.6386 22.4283 26.7116 22.4283 28.3401C22.4283 30.6713 22.4058 32.5493 22.4058 33.1168C22.4058 33.57 22.7208 34.1147 23.6479 33.9393C30.8483 31.6593 36 25.1233 36 17.4293C36 7.80725 27.9434 0 17.9989 0L18.0011 0.00108932Z" fill="black"/>
</svg>
