<svg width="35" height="35" viewBox="0 0 35 35" fill="none" xmlns="http://www.w3.org/2000/svg">
<path d="M29.8156 29.8267H24.6389V21.7037C24.6389 19.7667 24.5984 17.2774 21.9319 17.2774C19.2325 17.2774 18.8213 19.3785 18.8213 21.5604V29.8256H13.638V13.1235H18.6167V15.4017H18.6834C19.3791 14.086 21.0711 12.7024 23.5955 12.7024C28.8466 12.7024 29.8211 16.1597 29.8211 20.6548V29.8256L29.8156 29.8267ZM7.78203 10.8409C6.11187 10.8409 4.77312 9.49017 4.77312 7.82663C4.77312 6.16856 6.11734 4.82001 7.78203 4.82001C9.44672 4.82001 10.7953 6.16856 10.7953 7.82663C10.7953 9.49017 9.44672 10.8409 7.78203 10.8409ZM10.3786 29.8267H5.18437V13.1246H10.3786V29.8267ZM32.4144 0H2.58125C1.15609 0 0 1.12762 0 2.5232V32.4768C0 33.8724 1.15609 35 2.58125 35H32.4089C33.8319 35 35 33.8724 35 32.4768V2.5232C35 1.12762 33.8319 0 32.4089 0L32.4144 0Z" fill="black"/>
</svg>
